<mxfile host="Electron" agent="Mozilla/5.0 (X11; Linux x86_64) AppleWebKit/537.36 (KHTML, like Gecko) draw.io/28.0.6 Chrome/138.0.7204.100 Electron/37.2.3 Safari/537.36" version="28.0.6">
  <diagram name="Page-1" id="ykQ6Q0lQL1jeBx256BEe">
    <mxGraphModel dx="907" dy="584" grid="1" gridSize="10" guides="1" tooltips="1" connect="1" arrows="1" fold="1" page="1" pageScale="1" pageWidth="850" pageHeight="1100" math="0" shadow="0">
      <root>
        <mxCell id="0" />
        <mxCell id="1" parent="0" />
        <mxCell id="fgeuXzMo8uMWAzaWrkan-3" value="dfd-doctor-visit" style="shape=ellipse;html=1;dashed=0;whiteSpace=wrap;perimeter=ellipsePerimeter;fillColor=#d5e8d4;strokeColor=#82b366;" parent="1" vertex="1">
          <mxGeometry x="10" y="30" width="120" height="120" as="geometry" />
        </mxCell>
        <mxCell id="fgeuXzMo8uMWAzaWrkan-4" style="edgeStyle=orthogonalEdgeStyle;rounded=0;orthogonalLoop=1;jettySize=auto;html=1;dashed=1;curved=1;" parent="1" source="fgeuXzMo8uMWAzaWrkan-3" target="fgeuXzMo8uMWAzaWrkan-6" edge="1">
          <mxGeometry relative="1" as="geometry" />
        </mxCell>
        <mxCell id="fgeuXzMo8uMWAzaWrkan-5" value="Список" style="edgeStyle=orthogonalEdgeStyle;rounded=0;orthogonalLoop=1;jettySize=auto;html=1;curved=1;" parent="1" source="fgeuXzMo8uMWAzaWrkan-12" target="fgeuXzMo8uMWAzaWrkan-6" edge="1">
          <mxGeometry relative="1" as="geometry" />
        </mxCell>
        <mxCell id="fgeuXzMo8uMWAzaWrkan-23" style="edgeStyle=orthogonalEdgeStyle;rounded=0;orthogonalLoop=1;jettySize=auto;html=1;curved=1;" parent="1" source="fgeuXzMo8uMWAzaWrkan-6" target="9iVTo4gVKNiUYIo_XBfr-1" edge="1">
          <mxGeometry relative="1" as="geometry">
            <Array as="points">
              <mxPoint x="70" y="360" />
              <mxPoint x="135" y="360" />
            </Array>
          </mxGeometry>
        </mxCell>
        <mxCell id="fgeuXzMo8uMWAzaWrkan-24" value="Список материалов" style="edgeLabel;html=1;align=center;verticalAlign=middle;resizable=0;points=[];" parent="fgeuXzMo8uMWAzaWrkan-23" vertex="1" connectable="0">
          <mxGeometry x="-0.24" relative="1" as="geometry">
            <mxPoint y="-14" as="offset" />
          </mxGeometry>
        </mxCell>
        <mxCell id="fgeuXzMo8uMWAzaWrkan-6" value="Работник склада" style="html=1;dashed=0;whiteSpace=wrap;" parent="1" vertex="1">
          <mxGeometry x="20" y="190" width="100" height="50" as="geometry" />
        </mxCell>
        <mxCell id="fgeuXzMo8uMWAzaWrkan-12" value="1. Чтение списка израсходованных материалов" style="shape=ellipse;html=1;dashed=0;whiteSpace=wrap;perimeter=ellipsePerimeter;gradientColor=none;" parent="1" vertex="1">
          <mxGeometry x="240" y="155" width="120" height="120" as="geometry" />
        </mxCell>
        <mxCell id="fgeuXzMo8uMWAzaWrkan-21" value="Excel с расходами" style="edgeStyle=orthogonalEdgeStyle;rounded=0;orthogonalLoop=1;jettySize=auto;html=1;" parent="1" source="fgeuXzMo8uMWAzaWrkan-20" target="fgeuXzMo8uMWAzaWrkan-12" edge="1">
          <mxGeometry relative="1" as="geometry" />
        </mxCell>
        <mxCell id="fgeuXzMo8uMWAzaWrkan-20" value="Файловое хранилище" style="html=1;dashed=0;whiteSpace=wrap;shape=partialRectangle;right=0;" parent="1" vertex="1">
          <mxGeometry x="480" y="195" width="100" height="40" as="geometry" />
        </mxCell>
        <mxCell id="fgeuXzMo8uMWAzaWrkan-26" value="Расходный ордер" style="edgeStyle=orthogonalEdgeStyle;rounded=0;orthogonalLoop=1;jettySize=auto;html=1;entryX=0;entryY=0.5;entryDx=0;entryDy=0;" parent="1" source="fgeuXzMo8uMWAzaWrkan-22" target="fgeuXzMo8uMWAzaWrkan-25" edge="1">
          <mxGeometry relative="1" as="geometry" />
        </mxCell>
        <mxCell id="fgeuXzMo8uMWAzaWrkan-22" value="2.2. Списание израсходованных материалов" style="shape=ellipse;html=1;dashed=0;whiteSpace=wrap;perimeter=ellipsePerimeter;gradientColor=none;direction=south;" parent="1" vertex="1">
          <mxGeometry x="240" y="300" width="120" height="120" as="geometry" />
        </mxCell>
        <mxCell id="fgeuXzMo8uMWAzaWrkan-28" style="edgeStyle=orthogonalEdgeStyle;rounded=0;orthogonalLoop=1;jettySize=auto;html=1;entryX=0;entryY=0.5;entryDx=0;entryDy=0;" parent="1" source="fgeuXzMo8uMWAzaWrkan-25" target="fgeuXzMo8uMWAzaWrkan-27" edge="1">
          <mxGeometry relative="1" as="geometry" />
        </mxCell>
        <mxCell id="fgeuXzMo8uMWAzaWrkan-29" value="Данные ордера" style="edgeLabel;html=1;align=center;verticalAlign=middle;resizable=0;points=[];" parent="fgeuXzMo8uMWAzaWrkan-28" vertex="1" connectable="0">
          <mxGeometry x="-0.32" y="5" relative="1" as="geometry">
            <mxPoint x="-5" y="10" as="offset" />
          </mxGeometry>
        </mxCell>
        <mxCell id="fgeuXzMo8uMWAzaWrkan-25" value="1С Склад" style="html=1;dashed=0;whiteSpace=wrap;shape=partialRectangle;right=0;" parent="1" vertex="1">
          <mxGeometry x="480" y="340" width="100" height="40" as="geometry" />
        </mxCell>
        <mxCell id="fgeuXzMo8uMWAzaWrkan-31" value="Данные ордера" style="edgeStyle=orthogonalEdgeStyle;rounded=0;orthogonalLoop=1;jettySize=auto;html=1;" parent="1" source="fgeuXzMo8uMWAzaWrkan-27" target="fgeuXzMo8uMWAzaWrkan-30" edge="1">
          <mxGeometry relative="1" as="geometry" />
        </mxCell>
        <mxCell id="fgeuXzMo8uMWAzaWrkan-27" value="3. Отражение расходного ордера в бухгалтерском&amp;nbsp;&lt;div&gt;учёте&lt;/div&gt;" style="shape=ellipse;html=1;dashed=0;whiteSpace=wrap;perimeter=ellipsePerimeter;gradientColor=none;direction=south;" parent="1" vertex="1">
          <mxGeometry x="470" y="440" width="120" height="120" as="geometry" />
        </mxCell>
        <mxCell id="fgeuXzMo8uMWAzaWrkan-30" value="1С Бухгалтерия" style="html=1;dashed=0;whiteSpace=wrap;shape=partialRectangle;right=0;" parent="1" vertex="1">
          <mxGeometry x="700" y="480" width="100" height="40" as="geometry" />
        </mxCell>
        <mxCell id="9iVTo4gVKNiUYIo_XBfr-2" style="edgeStyle=orthogonalEdgeStyle;rounded=0;orthogonalLoop=1;jettySize=auto;html=1;entryX=0.5;entryY=1;entryDx=0;entryDy=0;" edge="1" parent="1" source="9iVTo4gVKNiUYIo_XBfr-1" target="fgeuXzMo8uMWAzaWrkan-22">
          <mxGeometry relative="1" as="geometry" />
        </mxCell>
        <mxCell id="9iVTo4gVKNiUYIo_XBfr-1" value="2.1. RBAC" style="ellipse;whiteSpace=wrap;html=1;aspect=fixed;fillColor=#ffe6cc;strokeColor=#d79b00;" vertex="1" parent="1">
          <mxGeometry x="110" y="315" width="90" height="90" as="geometry" />
        </mxCell>
      </root>
    </mxGraphModel>
  </diagram>
</mxfile>
